<svg xmlns="http://www.w3.org/2000/svg" width="330" height="460" viewBox="0 0 330 460">
    <defs><linearGradient id="g" x1="0" x2="1" y1="0" y2="1"><stop offset="0%" stop-color="#5d5dff"/><stop offset="50%" stop-color="#171a44"/><stop offset="100%" stop-color="#ad7cff"/></linearGradient><filter id="blur"><feGaussianBlur stdDeviation="12"/></filter></defs>
    <rect width="100%" height="100%" rx="28" fill="url(#g)"/><circle cx="0" cy="0" r="18" fill="white" opacity="0.10"/><circle cx="83" cy="47" r="25" fill="white" opacity="0.10"/><circle cx="166" cy="94" r="32" fill="white" opacity="0.10"/><circle cx="249" cy="141" r="39" fill="white" opacity="0.10"/><circle cx="2" cy="188" r="46" fill="white" opacity="0.10"/><circle cx="85" cy="235" r="53" fill="white" opacity="0.10"/><circle cx="168" cy="282" r="60" fill="white" opacity="0.10"/><circle cx="251" cy="329" r="67" fill="white" opacity="0.10"/><circle cx="4" cy="376" r="74" fill="white" opacity="0.10"/><circle cx="87" cy="423" r="21" fill="white" opacity="0.10"/><circle cx="170" cy="10" r="28" fill="white" opacity="0.10"/><circle cx="253" cy="57" r="35" fill="white" opacity="0.10"/>
    <path d="M0 358.8 C 82.5 299.0, 165.0 400.2, 330 331.2 L 330 460 L0 460 Z" fill="#101533" opacity=".34"/>
    <circle cx="191.39999999999998" cy="142.6" r="23.1" fill="#2d2554" opacity=".65"/><path d="M 148.5 253.00000000000003 Q 188.1 174.8 224.4 253.00000000000003 L 244.2 414.0 L 128.70000000000002 414.0 Z" fill="#2d2554" opacity=".58"/>
    <text x="22" y="426" font-family="Arial" font-size="22" font-weight="700" fill="white" opacity=".92">solo</text>
    </svg>