<svg xmlns="http://www.w3.org/2000/svg" width="440" height="230" viewBox="0 0 440 230">
    <defs><linearGradient id="g" x1="0" x2="1" y1="0" y2="1"><stop offset="0%" stop-color="#fce7f3"/><stop offset="50%" stop-color="#ede9fe"/><stop offset="100%" stop-color="#e0f2fe"/></linearGradient><filter id="blur"><feGaussianBlur stdDeviation="12"/></filter></defs>
    <rect width="100%" height="100%" rx="28" fill="url(#g)"/><circle cx="0" cy="0" r="18" fill="white" opacity="0.10"/><circle cx="83" cy="47" r="25" fill="white" opacity="0.10"/><circle cx="166" cy="94" r="32" fill="white" opacity="0.10"/><circle cx="249" cy="141" r="39" fill="white" opacity="0.10"/><circle cx="332" cy="188" r="46" fill="white" opacity="0.10"/><circle cx="415" cy="5" r="53" fill="white" opacity="0.10"/><circle cx="58" cy="52" r="60" fill="white" opacity="0.10"/><circle cx="141" cy="99" r="67" fill="white" opacity="0.10"/><circle cx="224" cy="146" r="74" fill="white" opacity="0.10"/><circle cx="307" cy="193" r="21" fill="white" opacity="0.10"/><circle cx="390" cy="10" r="28" fill="white" opacity="0.10"/><circle cx="33" cy="57" r="35" fill="white" opacity="0.10"/>
    <path d="M0 179.4 C 110.0 149.5, 220.0 200.1, 440 165.6 L 440 230 L0 230 Z" fill="#101533" opacity=".34"/>
    <circle cx="255.2" cy="71.3" r="16.1" fill="#2d2554" opacity=".65"/><path d="M 198.0 126.50000000000001 Q 250.79999999999998 87.4 299.20000000000005 126.50000000000001 L 325.6 207.0 L 171.6 207.0 Z" fill="#2d2554" opacity=".58"/>
    <text x="22" y="196" font-family="Arial" font-size="22" font-weight="700" fill="white" opacity=".92">collection 1</text>
    </svg>