<svg xmlns="http://www.w3.org/2000/svg" width="260" height="520" viewBox="0 0 260 520">
    <defs><linearGradient id="g" x1="0" x2="1" y1="0" y2="1"><stop offset="0%" stop-color="#f8dbff"/><stop offset="50%" stop-color="#b5a8ff"/><stop offset="100%" stop-color="#fff1d5"/></linearGradient><filter id="blur"><feGaussianBlur stdDeviation="12"/></filter></defs>
    <rect width="100%" height="100%" rx="28" fill="url(#g)"/><circle cx="0" cy="0" r="18" fill="white" opacity="0.10"/><circle cx="83" cy="47" r="25" fill="white" opacity="0.10"/><circle cx="166" cy="94" r="32" fill="white" opacity="0.10"/><circle cx="249" cy="141" r="39" fill="white" opacity="0.10"/><circle cx="72" cy="188" r="46" fill="white" opacity="0.10"/><circle cx="155" cy="235" r="53" fill="white" opacity="0.10"/><circle cx="238" cy="282" r="60" fill="white" opacity="0.10"/><circle cx="61" cy="329" r="67" fill="white" opacity="0.10"/><circle cx="144" cy="376" r="74" fill="white" opacity="0.10"/><circle cx="227" cy="423" r="21" fill="white" opacity="0.10"/><circle cx="50" cy="470" r="28" fill="white" opacity="0.10"/><circle cx="133" cy="517" r="35" fill="white" opacity="0.10"/>
    <path d="M0 405.6 C 65.0 338.0, 130.0 452.4, 260 374.4 L 260 520 L0 520 Z" fill="#101533" opacity=".34"/>
    <circle cx="150.79999999999998" cy="161.2" r="18.200000000000003" fill="#2d2554" opacity=".65"/><path d="M 117.0 286.0 Q 148.2 197.6 176.8 286.0 L 192.4 468.0 L 101.4 468.0 Z" fill="#2d2554" opacity=".58"/>
    <text x="22" y="486" font-family="Arial" font-size="22" font-weight="700" fill="white" opacity=".92">spring room</text>
    </svg>