<svg xmlns="http://www.w3.org/2000/svg" width="1200" height="420" viewBox="0 0 1200 420">
    <defs><linearGradient id="g" x1="0" x2="1" y1="0" y2="1"><stop offset="0%" stop-color="#f6d7fb"/><stop offset="33%" stop-color="#a58cf6"/><stop offset="67%" stop-color="#fdc7d8"/><stop offset="100%" stop-color="#7ca4ff"/></linearGradient><filter id="blur"><feGaussianBlur stdDeviation="12"/></filter></defs>
    <rect width="100%" height="100%" rx="28" fill="url(#g)"/><circle cx="0" cy="0" r="18" fill="white" opacity="0.10"/><circle cx="83" cy="47" r="25" fill="white" opacity="0.10"/><circle cx="166" cy="94" r="32" fill="white" opacity="0.10"/><circle cx="249" cy="141" r="39" fill="white" opacity="0.10"/><circle cx="332" cy="188" r="46" fill="white" opacity="0.10"/><circle cx="415" cy="235" r="53" fill="white" opacity="0.10"/><circle cx="498" cy="282" r="60" fill="white" opacity="0.10"/><circle cx="581" cy="329" r="67" fill="white" opacity="0.10"/><circle cx="664" cy="376" r="74" fill="white" opacity="0.10"/><circle cx="747" cy="3" r="21" fill="white" opacity="0.10"/><circle cx="830" cy="50" r="28" fill="white" opacity="0.10"/><circle cx="913" cy="97" r="35" fill="white" opacity="0.10"/>
    <path d="M0 327.6 C 300.0 273.0, 600.0 365.4, 1200 302.4 L 1200 420 L0 420 Z" fill="#101533" opacity=".34"/>
    <circle cx="696.0" cy="130.2" r="29.400000000000002" fill="#2d2554" opacity=".65"/><path d="M 540.0 231.00000000000003 Q 683.9999999999999 159.6 816.0000000000001 231.00000000000003 L 888.0 378.0 L 468.0 378.0 Z" fill="#2d2554" opacity=".58"/>
    <text x="22" y="386" font-family="Arial" font-size="22" font-weight="700" fill="white" opacity=".92">anime mood</text>
    </svg>