<svg xmlns="http://www.w3.org/2000/svg" width="680" height="220" viewBox="0 0 680 220">
    <defs><linearGradient id="g" x1="0" x2="1" y1="0" y2="1"><stop offset="0%" stop-color="#feb7d9"/><stop offset="50%" stop-color="#9a83ff"/><stop offset="100%" stop-color="#2b285d"/></linearGradient><filter id="blur"><feGaussianBlur stdDeviation="12"/></filter></defs>
    <rect width="100%" height="100%" rx="28" fill="url(#g)"/><circle cx="0" cy="0" r="18" fill="white" opacity="0.10"/><circle cx="83" cy="47" r="25" fill="white" opacity="0.10"/><circle cx="166" cy="94" r="32" fill="white" opacity="0.10"/><circle cx="249" cy="141" r="39" fill="white" opacity="0.10"/><circle cx="332" cy="188" r="46" fill="white" opacity="0.10"/><circle cx="415" cy="15" r="53" fill="white" opacity="0.10"/><circle cx="498" cy="62" r="60" fill="white" opacity="0.10"/><circle cx="581" cy="109" r="67" fill="white" opacity="0.10"/><circle cx="664" cy="156" r="74" fill="white" opacity="0.10"/><circle cx="67" cy="203" r="21" fill="white" opacity="0.10"/><circle cx="150" cy="30" r="28" fill="white" opacity="0.10"/><circle cx="233" cy="77" r="35" fill="white" opacity="0.10"/>
    <path d="M0 171.6 C 170.0 143.0, 340.0 191.4, 680 158.4 L 680 220 L0 220 Z" fill="#101533" opacity=".34"/>
    <circle cx="394.4" cy="68.2" r="15.400000000000002" fill="#2d2554" opacity=".65"/><path d="M 306.0 121.00000000000001 Q 387.59999999999997 83.6 462.40000000000003 121.00000000000001 L 503.2 198.0 L 265.2 198.0 Z" fill="#2d2554" opacity=".58"/>
    <text x="22" y="186" font-family="Arial" font-size="22" font-weight="700" fill="white" opacity=".92">continue</text>
    </svg>